<?xml version="1.0" encoding="UTF-8" standalone="no"?>
<!-- Created with Inkscape (http://www.inkscape.org/) -->

<svg
   xmlns:dc="http://purl.org/dc/elements/1.1/"
   xmlns:cc="http://creativecommons.org/ns#"
   xmlns:rdf="http://www.w3.org/1999/02/22-rdf-syntax-ns#"
   xmlns:svg="http://www.w3.org/2000/svg"
   xmlns="http://www.w3.org/2000/svg"
   xmlns:xlink="http://www.w3.org/1999/xlink"
   xmlns:sodipodi="http://sodipodi.sourceforge.net/DTD/sodipodi-0.dtd"
   xmlns:inkscape="http://www.inkscape.org/namespaces/inkscape"
   version="1.1"
   width="192"
   height="48"
   id="svg2"
   inkscape:version="0.48.2 r9819"
   sodipodi:docname="Longest_dinosaurs.svg">
  <sodipodi:namedview
     pagecolor="#ffffff"
     bordercolor="#666666"
     borderopacity="1"
     objecttolerance="10"
     gridtolerance="10"
     guidetolerance="10"
     inkscape:pageopacity="0"
     inkscape:pageshadow="2"
     inkscape:window-width="1920"
     inkscape:window-height="1018"
     id="namedview3193"
     showgrid="false"
     inkscape:zoom="5.1362984"
     inkscape:cx="79.930447"
     inkscape:cy="56.358659"
     inkscape:window-x="-8"
     inkscape:window-y="-8"
     inkscape:window-maximized="1"
     inkscape:current-layer="svg2" />
  <defs
     id="defs4">
    <linearGradient
       id="linearGradient3999">
      <stop
         style="stop-color:#000000;stop-opacity:0.50196081;"
         offset="0"
         id="stop4001" />
      <stop
         style="stop-color:#000000;stop-opacity:0;"
         offset="1"
         id="stop4003" />
    </linearGradient>
    <linearGradient
       id="linearGradient1245">
      <stop
         id="stop1247"
         style="stop-color:#000000;stop-opacity:1"
         offset="0" />
      <stop
         id="stop1249"
         style="stop-color:#000000;stop-opacity:0"
         offset="1" />
    </linearGradient>
    <marker
       refX="0"
       refY="0"
       orient="auto"
       id="Arrow1Lstart"
       style="overflow:visible">
      <path
         d="M 0,0 5,-5 -12.5,0 5,5 0,0 z"
         transform="matrix(0.8,0,0,0.8,10,0)"
         id="path981"
         style="fill-rule:evenodd;stroke:#000000;stroke-width:1pt"
         inkscape:connector-curvature="0" />
    </marker>
    <marker
       refX="0"
       refY="0"
       orient="auto"
       id="Arrow1Lend"
       style="overflow:visible">
      <path
         d="M 0,0 5,-5 -12.5,0 5,5 0,0 z"
         transform="matrix(-0.8,0,0,-0.8,-10,0)"
         id="path984"
         style="fill-rule:evenodd;stroke:#000000;stroke-width:1pt"
         inkscape:connector-curvature="0" />
    </marker>
    <linearGradient
       x1="103.21134"
       y1="428.18805"
       x2="125.91642"
       y2="428.18805"
       id="linearGradient1251"
       xlink:href="#linearGradient1245"
       gradientUnits="userSpaceOnUse" />
    <radialGradient
       inkscape:collect="always"
       xlink:href="#linearGradient3999"
       id="radialGradient4005"
       cx="97.151672"
       cy="41.477795"
       fx="97.151672"
       fy="41.477795"
       r="35.823463"
       gradientTransform="matrix(1,0,0,0.12228261,0,36.405782)"
       gradientUnits="userSpaceOnUse" />
  </defs>
  <metadata
     id="metadata7">
    <rdf:RDF>
      <cc:Work
         rdf:about="">
        <dc:format>image/svg+xml</dc:format>
        <dc:type
           rdf:resource="http://purl.org/dc/dcmitype/StillImage" />
        <dc:title></dc:title>
      </cc:Work>
    </rdf:RDF>
  </metadata>
  <path
     sodipodi:type="arc"
     style="color:#000000;fill:url(#radialGradient4005);fill-opacity:1;stroke:none;stroke-width:4;marker:none;visibility:visible;display:inline;overflow:visible;enable-background:accumulate"
     id="path3997"
     sodipodi:cx="97.151672"
     sodipodi:cy="41.477795"
     sodipodi:rx="35.823463"
     sodipodi:ry="4.3805866"
     d="m 132.97514,41.477795 a 35.823463,4.3805866 0 1 1 -71.646931,0 35.823463,4.3805866 0 1 1 71.646931,0 z"
     transform="translate(-1.1681564,1.3628492)" />
  <path
     d="m 11.60341,8.322387 c 0,-0.3092659 0.746981,-3.2824501 2.04114,-4.0822758 0.280613,-0.1734309 0.664544,0.055965 0.989643,0 0.668357,-0.1150654 1.247633,-0.5740412 1.917434,-0.6803873 2.342488,-0.3718966 4.765663,-0.1539802 7.113061,0.1855668 6.399889,0.9257169 18.109235,5.1195544 24.164693,6.9344673 11.357075,3.403908 17.746217,3.182093 29.597219,4.226731 6.223035,0.548545 12.297467,-2.777845 18.544271,-2.711666 3.872926,0.04104 11.633889,1.924406 11.808839,1.924406 0.17494,0 4.25827,0.05643 6.473,0.612311 1.44453,0.362573 5.31487,1.82695 6.73542,2.274304 4.17817,1.315745 5.94589,1.293775 10.23434,2.186818 6.23647,1.298711 8.04751,2.624192 18.71919,3.848813 0.17381,0.01994 15.88411,2.244583 23.88011,2.274293 3.27119,0.142288 15.36758,2.609189 15.92008,16.83854 -0.67427,-6.672202 -4.22044,-15.307324 -16.09501,-16.401179 -5.9113,0.419714 -13.0918,-0.05785 -19.50648,-0.174937 -11.13822,-0.203312 -22.88963,-1.247828 -33.76453,-0.78726 -3.64795,0.154498 -6.37436,0.60413 -7.6539,2.624191 -0.98503,1.555134 -3.84716,1.332277 -4.67979,2.974078 -1.77978,3.50936 1.01534,7.805294 1.39957,11.721375 0.0371,0.378347 0.46763,1.268353 0.0875,1.268353 l -5.68574,0 c 0.0802,-0.699785 -0.1039,-0.727719 0.17494,-1.18089 0.28422,-0.461915 1.08569,-0.994184 1.3121,-1.487033 0.47611,-1.036385 0.1295,-2.049906 -0.17494,-3.149028 -0.33067,-1.193821 -0.6214,-2.651868 -1.662,-3.323976 -5.977164,2.676262 -17.965409,0.226199 -19.768877,-0.787248 -0.01114,1.020722 -0.352973,1.682825 -0.437374,2.536717 -0.109028,1.102992 -0.07051,2.232337 -0.262424,3.323964 -0.127728,0.726495 -0.43834,1.3668 -0.524823,2.099356 -0.07892,0.668509 0.410725,1.049672 0.174937,2.055613 l -3.23649,0 c -0.160903,-0.851553 0.322737,-1.347463 0.524836,-1.793201 0.530714,-2.520956 0.285116,-4.284398 0.174937,-6.647942 -0.03117,-0.758016 0.419188,-1.591995 0.08747,-2.274292 C 79.61385,31.49234 78.301362,29.426992 78.03895,28.902156 77.776486,28.37732 77.121853,25.675402 76.027029,25.490717 67.171794,23.996887 62.118738,22.671774 54.946058,20.592232 52.076733,19.760335 49.217714,18.857397 46.461177,17.705617 41.768835,15.744998 37.513771,12.82887 32.815399,10.882739 28.726475,9.1890513 24.627232,7.0814906 20.219296,6.6840276 18.371213,6.5173934 16.3312,6.5712767 14.708501,7.4712875 c -0.633364,0.3512948 -1.224622,1.6619823 -1.399567,1.6619823 -0.174946,0 -1.705524,0.710488 -1.705524,-0.8108828 z"
     id="path829"
     style="fill:none;stroke:#004000;stroke-width:4;stroke-linecap:butt;stroke-linejoin:round;stroke-miterlimit:4;stroke-opacity:1;stroke-dasharray:none;stroke-dashoffset:0"
     inkscape:connector-curvature="0" />
  <path
     inkscape:connector-curvature="0"
     style="fill:#008000;fill-opacity:1;stroke:none"
     id="path3993"
     d="m 11.60341,8.322387 c 0,-0.3092659 0.746981,-3.2824501 2.04114,-4.0822758 0.280613,-0.1734309 0.664544,0.055965 0.989643,0 0.668357,-0.1150654 1.247633,-0.5740412 1.917434,-0.6803873 2.342488,-0.3718966 4.765663,-0.1539802 7.113061,0.1855668 6.399889,0.9257169 18.109235,5.1195544 24.164693,6.9344673 11.357075,3.403908 17.746217,3.182093 29.597219,4.226731 6.223035,0.548545 12.297467,-2.777845 18.544271,-2.711666 3.872926,0.04104 11.633889,1.924406 11.808839,1.924406 0.17494,0 4.25827,0.05643 6.473,0.612311 1.44453,0.362573 5.31487,1.82695 6.73542,2.274304 4.17817,1.315745 5.94589,1.293775 10.23434,2.186818 6.23647,1.298711 8.04751,2.624192 18.71919,3.848813 0.17381,0.01994 15.88411,2.244583 23.88011,2.274293 3.27119,0.142288 15.36758,2.609189 15.92008,16.83854 -0.67427,-6.672202 -4.22044,-15.307324 -16.09501,-16.401179 -5.9113,0.419714 -13.0918,-0.05785 -19.50648,-0.174937 -11.13822,-0.203312 -22.88963,-1.247828 -33.76453,-0.78726 -3.64795,0.154498 -6.37436,0.60413 -7.6539,2.624191 -0.98503,1.555134 -3.84716,1.332277 -4.67979,2.974078 -1.77978,3.50936 1.01534,7.805294 1.39957,11.721375 0.0371,0.378347 0.46763,1.268353 0.0875,1.268353 l -5.68574,0 c 0.0802,-0.699785 -0.1039,-0.727719 0.17494,-1.18089 0.28422,-0.461915 1.08569,-0.994184 1.3121,-1.487033 0.47611,-1.036385 0.1295,-2.049906 -0.17494,-3.149028 -0.33067,-1.193821 -0.6214,-2.651868 -1.662,-3.323976 -5.977164,2.676262 -17.965409,0.226199 -19.768877,-0.787248 -0.01114,1.020722 -0.352973,1.682825 -0.437374,2.536717 -0.109028,1.102992 -0.07051,2.232337 -0.262424,3.323964 -0.127728,0.726495 -0.43834,1.3668 -0.524823,2.099356 -0.07892,0.668509 0.410725,1.049672 0.174937,2.055613 l -3.23649,0 c -0.160903,-0.851553 0.322737,-1.347463 0.524836,-1.793201 0.530714,-2.520956 0.285116,-4.284398 0.174937,-6.647942 -0.03117,-0.758016 0.419188,-1.591995 0.08747,-2.274292 C 79.61385,31.49234 78.301362,29.426992 78.03895,28.902156 77.776486,28.37732 77.121853,25.675402 76.027029,25.490717 67.171794,23.996887 62.118738,22.671774 54.946058,20.592232 52.076733,19.760335 49.217714,18.857397 46.461177,17.705617 41.768835,15.744998 37.513771,12.82887 32.815399,10.882739 28.726475,9.1890513 24.627232,7.0814906 20.219296,6.6840276 18.371213,6.5173934 16.3312,6.5712767 14.708501,7.4712875 c -0.633364,0.3512948 -1.224622,1.6619823 -1.399567,1.6619823 -0.174946,0 -1.705524,0.710488 -1.705524,-0.8108828 z" />
</svg>
